<svg width="200" height="80" version="1.1" viewBox="0 0 52.917 21.167" xmlns="http://www.w3.org/2000/svg">
 <g transform="translate(-5.2917 -2.6376)">
  <path d="m58.161 2.6376c-0.70744-3.016e-4 -3.0062 0.010373-3.9886 0.00826h-41.162c-4.2737 0-7.7147 4.7139-7.7179 10.571 0 0.0014-4e-7 0.0027 0 0.0041-4e-7 0.0014 0 0.0027 0 0.0041 0.00326 5.857 3.4442 10.571 7.7179 10.571h41.162c0.98237-0.0021 3.2812 0.0086 3.9886 0.0083l0.0417-0.04442c7.76e-4 -0.254 0.0053-1.1733 6e-3 -1.4273l-0.04372-0.05217c-3.4903-1.5743-5.7322-5.1378-5.7759-9.0553-3.2e-5 -0.0028 2.8e-5 -0.0055 0-0.0083 0.04369-3.9176 2.2856-7.4811 5.7759-9.0553l0.04372-0.052173c-7.72e-4 -0.254-0.0053-1.1733-6e-3 -1.4273z" stroke-width=".26085"/>
  <text x="37.505817" y="18.146242" fill="#ffffff" font-family="sans-serif" font-size="14.111px" letter-spacing=".52917px" stroke-width=".26458" text-align="center" text-anchor="middle" word-spacing="0px" style="line-height:0" xml:space="preserve"><tspan x="37.770401" y="18.146242" dx="0 0 0 0" fill="#ffffff" font-family="Calibri" font-size="14.111px" stroke-width=".26458" style="line-height:0px"><tspan dx="0" rotate="0 0 0 0 0" font-size="14.111px" stroke-width=".26458" word-spacing=".52917px" style="line-height:0px">LIST</tspan></tspan></text>
  <g transform="matrix(.37662 0 0 .37662 3.9819 4.742)" fill="#fff">
   <g fill="#fff" fill-rule="evenodd">
    <g transform="translate(-227,-249)" fill="#fff">
     <path d="m244.03 259c-1.105 0-2.001 0.896-2.001 2.001v1.999c0 1.105 0.896 2.001 2.001 2.001h1.999c1.105 0 2.001-0.896 2.001-2.001v-1.999c0-1.105-0.896-2.001-2.001-2.001zm0 10.001c-1.105 0-2.001 0.894-2.001 1.999v2.001c0 1.105 0.896 1.999 2.001 1.999h1.999c1.105 0 2.001-0.894 2.001-1.999v-2.001c0-1.105-0.896-1.999-2.001-1.999zm0 9.999c-1.105 0-2.001 0.896-2.001 2.001v1.999c0 1.105 0.896 2.001 2.001 2.001h1.999c1.105 0 2.001-0.896 2.001-2.001v-1.999c0-1.105-0.896-2.001-2.001-2.001zm8-20c-1.105 0-2.001 0.896-2.001 2.001v1.999c0 1.105 0.896 2.001 2.001 2.001h19.997c1.106 0 2.002-0.896 2.002-2.001v-1.999c0-1.105-0.896-2.001-2.002-2.001zm0 10.001c-1.105 0-2.001 0.894-2.001 1.999v2.001c0 1.105 0.896 1.999 2.001 1.999h19.997c1.106 0 2.002-0.894 2.002-1.999v-2.001c0-1.105-0.896-1.999-2.002-1.999zm0 9.999c-1.105 0-2.001 0.896-2.001 2.001v1.999c0 1.105 0.896 2.001 2.001 2.001h19.997c1.106 0 2.002-0.896 2.002-2.001v-1.999c0-1.105-0.896-2.001-2.002-2.001z" fill="#fff"/>
    </g>
   </g>
  </g>
 </g>
</svg>
