<svg width="72" height="72" version="1.1" viewBox="0 0 19.05 19.05" xmlns="http://www.w3.org/2000/svg">
 <g transform="translate(-2.8091 -3.832)">
  <circle cx="12.334" cy="13.357" r="9.525" stroke-width=".26458"/>
  <g transform="matrix(.17137 0 0 .17137 -16.903 27.06)" fill="#fff">
   <g transform="matrix(.89325 0 0 .93061 16.423 -5.8415)" fill="#fff">
    <path d="m190.07-55.077c-4.887 3.392-10.621 5.189-16.582 5.192l-0.401-7e-3c-0.794-6e-3 -1.588-0.048-2.368-0.117l-0.96-0.121c-0.618-0.077-1.236-0.166-1.836-0.277-0.262-0.048-0.522-0.112-0.781-0.176l-0.315-0.07c-0.59-0.14-1.173-0.277-1.747-0.449l-0.822-0.271c-0.656-0.224-1.319-0.45-1.964-0.715l-0.178 0.421-0.252-0.611c-0.749-0.332-1.489-0.676-2.309-1.109-2.429-1.333-4.644-2.98-6.69-5.018-0.605-0.6-1.18-1.228-1.728-1.891l-0.357 0.297 0.013-0.73c-3.618-4.494-5.737-9.827-6.213-15.515 4.881-0.134 9.188-0.484 9.602-1.307 0.149-0.296 0.5-0.988-3.344-7.162-1.785-2.875-9.448-14.482-11.476-14.482-2.197 0.065-11.41 14.798-13.58 19.191-1.036 2.104-0.938 2.531-0.733 2.809 0.484 0.653 5.001 0.901 9.276 0.987 0.449 7.049 2.772 13.793 6.809 19.595l0.459-0.127-0.293 0.424c0.341 0.481 0.71 0.934 1.077 1.383l0.905 1.151c0.714 0.857 1.473 1.67 2.25 2.464l0.221 0.227c2.601 2.588 5.565 4.801 8.801 6.56l0.277 0.16c0.93101 0.49 1.884 0.937 2.856 1.364l0.717 0.318c0.829 0.345 1.677 0.638 2.71 0.982 0.344 0.121 0.691 0.235 1.045 0.344 0.749 0.224 1.515 0.408 2.289 0.59l0.356 0.086c0.393 0.089 0.784 0.179 1.419 0.31 0.137 0.038 0.271 0.066 0.398 0.089 0.58 0.105 1.167 0.172 1.753 0.239l1.218 0.153c1.309 0.126 2.615 0.209 3.916 0.209 8.029 0 15.785-2.438 22.428-7.07 2.309-1.606 2.872-4.781 1.256-7.073-1.562-2.21-4.89-2.815-7.122-1.247z"/>
    <path d="m221.43-79.3c-0.396-0.774-4.294-1.128-8.855-1.278-0.36-7.245-2.697-14.185-6.822-20.126l-0.382 0.255 0.21-0.574c-0.529-0.749-1.097-1.447-1.721-2.2l-0.198-0.261c-3.984-4.801-8.909-8.473-14.644-10.931l-0.473-0.207c-0.905-0.37-1.829-0.698-2.76-1.007l-0.354-0.118c-0.213-0.073-0.434-0.15-0.653-0.213-0.812-0.239-1.632-0.443-2.467-0.631l-0.383-0.089c-0.331-0.077-0.663-0.156-1.001-0.223l-0.669-0.153c-0.393-0.07-0.784-0.111-1.183-0.153l-1.961-0.242c-1.045-0.096-2.078-0.134-3.363-0.166l-0.411-6e-3c-8.052 6e-3 -15.798 2.442-22.39 7.032-1.122 0.77801-1.871 1.944-2.11 3.283-0.236 1.339 0.063 2.687 0.848 3.803 1.556 2.209 4.891 2.802 7.128 1.24 4.88-3.395 10.608-5.189 16.831-5.189h6e-3c0.861 6e-3 1.709 0.047 2.544 0.127l0.771 0.096c0.695 0.083 1.377 0.182 2.05 0.312l0.883 0.204c0.663 0.144 1.319 0.303 1.961 0.491l0.611 0.208c0.736 0.239 1.464 0.5 2.388 0.889 4.221 1.798 8.001 4.616 10.988 8.211 3.835 4.638 6.024 10.258 6.442 16.27-4.476 0.07-9.48 0.304-9.997 0.998-0.204 0.28-0.3 0.704 0.733 2.802 2.174 4.402 11.387 19.136 13.586 19.196h0.022c2.011 0 9.509-11.367 11.408-14.411 3.89-6.238 3.539-6.937 3.387-7.239z"/>
   </g>
  </g>
 </g>
</svg>
