<svg width="144.16" height="100" version="1.1" viewBox="0 0 38.142 26.458" xmlns="http://www.w3.org/2000/svg">
 <g transform="translate(-.6499 -.65681)">
  <path d="m8.7734 4.3191c-4.5006 0-8.1235 4.7202-8.1235 10.583 0 5.8632 3.6229 10.583 8.1235 10.583h7.1282c-3.2509-2.5046-5.1553-6.3761-5.1552-10.48 8e-5 -4.2252 2.0184-8.1963 5.4317-10.687zm16.775-2.604a13.229 13.229 0 0 0-13.215 13.229 13.229 13.229 0 0 0 5.5201 10.751c-0.04-0.94921 0.0324-2.0087 0.21446-2.6283 0.76488-2.6041 2.7259-4.565 5.3299-5.3299 0.07657-0.02249 0.16968-0.04029 0.25786-0.05943-1.4664-0.59353-2.6276-1.8743-3.0417-3.4272-0.17762-0.66615-0.16568-2.0289 0.02325-2.6722 0.50543-1.7208 1.801-3.0163 3.5217-3.5217 0.65615-0.19273 2.0097-0.19976 2.7078-0.013953 0.86248 0.22956 1.5768 0.64805 2.251 1.3188 2.6695 2.6555 1.5998 7.0369-1.7565 8.3271 0.04322 0.0099 0.09393 0.01715 0.13436 0.02791 1.3052 0.34739 2.3861 0.9807 3.4065 1.9957 1.7417 1.7326 2.4297 3.951 2.2443 6.0709a13.229 13.229 0 0 0 5.6451-10.839 13.229 13.229 0 0 0-13.229-13.229 13.229 13.229 0 0 0-0.01395 0z" stroke-width=".25158"/>
  <text x="6.0904875" y="18.795841" fill="#ffffff" font-family="sans-serif" font-size="9.8778px" letter-spacing="0px" stroke-width=".26458" text-align="center" text-anchor="middle" word-spacing="0px" style="line-height:1.25" xml:space="preserve"><tspan x="6.0904875" y="18.795841" fill="#ffffff" font-size="9.8778px" stroke-width=".26458">3</tspan></text>
 </g>
</svg>
